<svg width="34" height="35" viewBox="0 0 34 35" fill="none" xmlns="http://www.w3.org/2000/svg">
<path d="M7.76928 15.508C11.5078 15.508 14.5386 12.4773 14.5386 8.73876C14.5386 5.0002 11.5078 1.96948 7.76928 1.96948C4.03072 1.96948 1 5.0002 1 8.73876C1 12.4773 4.03072 15.508 7.76928 15.508Z" stroke="white" stroke-width="2" stroke-linecap="round" stroke-linejoin="round"/>
<path d="M26.2307 15.508C29.9693 15.508 33 12.4773 33 8.73876C33 5.0002 29.9693 1.96948 26.2307 1.96948C22.4922 1.96948 19.4614 5.0002 19.4614 8.73876C19.4614 12.4773 22.4922 15.508 26.2307 15.508Z" stroke="white" stroke-width="2" stroke-linecap="round" stroke-linejoin="round"/>
<path d="M7.76928 33.9699C11.5078 33.9699 14.5386 30.9392 14.5386 27.2006C14.5386 23.462 11.5078 20.4313 7.76928 20.4313C4.03072 20.4313 1 23.462 1 27.2006C1 30.9392 4.03072 33.9699 7.76928 33.9699Z" stroke="white" stroke-width="2" stroke-linecap="round" stroke-linejoin="round"/>
<path d="M26.2307 33.9699C29.9693 33.9699 33 30.9392 33 27.2006C33 23.462 29.9693 20.4313 26.2307 20.4313C22.4922 20.4313 19.4614 23.462 19.4614 27.2006C19.4614 30.9392 22.4922 33.9699 26.2307 33.9699Z" stroke="white" stroke-width="2" stroke-linecap="round" stroke-linejoin="round"/>
</svg>
