<svg width="35" height="35" viewBox="0 0 35 35" fill="none" xmlns="http://www.w3.org/2000/svg">
<path d="M4.12829 5.66198C3.47544 5.66198 2.84934 5.92133 2.38772 6.38294C1.92609 6.84458 1.66675 7.47067 1.66675 8.12352V31.5081C1.66675 32.1609 1.92609 32.7871 2.38772 33.2487C2.84934 33.7102 3.47544 33.9697 4.12829 33.9697H31.2052C31.858 33.9697 32.4842 33.7102 32.9458 33.2487C33.4073 32.7871 33.6667 32.1609 33.6667 31.5081V8.12352C33.6667 7.47067 33.4073 6.84458 32.9458 6.38294C32.4842 5.92133 31.858 5.66198 31.2052 5.66198H26.2821M9.05126 1.96973V9.35434M26.2822 1.96973V9.35434M9.05126 5.66198H21.359M11.3135 20.9836H24.0199M24.0199 20.9836L19.2462 25.7585M24.0199 20.9836L19.2462 16.2092" stroke="white" stroke-width="2" stroke-linecap="round" stroke-linejoin="round"/>
</svg>
