<svg width="35" height="36" viewBox="0 0 35 36" fill="none" xmlns="http://www.w3.org/2000/svg">
<path d="M12.6063 5.56876L13.7952 2.67086C13.9957 2.18021 14.3484 1.75818 14.8072 1.46004C15.266 1.1619 15.8095 1.00155 16.3664 1H18.6335C19.1905 1.00155 19.7339 1.1619 20.1927 1.46004C20.6515 1.75818 21.0043 2.18021 21.2048 2.67086L22.3936 5.56876L26.4301 7.76177L29.6925 7.29184C30.2358 7.22221 30.7887 7.30664 31.2811 7.53443C31.7733 7.76221 32.1827 8.12304 32.4573 8.5711L33.5632 10.3986C33.8466 10.8538 33.9773 11.3794 33.9378 11.9061C33.8983 12.4328 33.6906 12.9358 33.342 13.3487L31.3237 15.7767V20.1627L33.3973 22.5907C33.7459 23.0036 33.9536 23.5066 33.9931 24.0333C34.0326 24.56 33.9019 25.0856 33.6185 25.5408L32.5126 27.3683C32.238 27.8163 31.8285 28.1771 31.3364 28.405C30.844 28.6327 30.2911 28.7173 29.7478 28.6476L26.4854 28.1776L22.4489 30.3706L21.2601 33.2685C21.0596 33.7591 20.7068 34.1812 20.248 34.4794C19.7892 34.7775 19.2458 34.9378 18.6888 34.9394H16.3664C15.8095 34.9378 15.266 34.7775 14.8072 34.4794C14.3484 34.1812 13.9957 33.7591 13.7952 33.2685L12.6063 30.3706L8.56976 28.1776L5.30734 28.6476C4.76411 28.7173 4.21122 28.6327 3.71892 28.405C3.22665 28.1771 2.81719 27.8163 2.54257 27.3683L1.43666 25.5408C1.15327 25.0856 1.02272 24.56 1.0622 24.0333C1.10168 23.5066 1.30937 23.0036 1.65784 22.5907L3.67612 20.1627V15.7767L1.60254 13.3487C1.25407 12.9358 1.04638 12.4328 1.0069 11.9061C0.967422 11.3794 1.09797 10.8538 1.38136 10.3986L2.48727 8.5711C2.7619 8.12304 3.17136 7.76221 3.66362 7.53443C4.15592 7.30664 4.70882 7.22221 5.25204 7.29184L8.51447 7.76177L12.6063 5.56876ZM11.9704 17.9697C11.9704 19.0024 12.2947 20.0119 12.9023 20.8706C13.5099 21.7292 14.3735 22.3985 15.3839 22.7937C16.3943 23.1889 17.5061 23.2923 18.5787 23.0908C19.6513 22.8893 20.6366 22.3921 21.41 21.6618C22.1833 20.9316 22.7099 20.0012 22.9233 18.9883C23.1366 17.9755 23.0271 16.9256 22.6086 15.9715C22.1901 15.0174 21.4813 14.202 20.572 13.6282C19.6627 13.0545 18.5936 12.7483 17.5 12.7483C16.0335 12.7483 14.627 13.2984 13.59 14.2776C12.553 15.2568 11.9704 16.5849 11.9704 17.9697Z" stroke="white" stroke-width="2" stroke-linecap="round" stroke-linejoin="round"/>
</svg>
