<svg width="34" height="32" viewBox="0 0 34 32" fill="none" xmlns="http://www.w3.org/2000/svg">
<path d="M21.6025 13.5849C24.8949 13.5849 27.564 10.9159 27.564 7.6234C27.564 4.33094 24.8949 1.66187 21.6025 1.66187M27.564 30.2775H32.3333V28.9845C32.3142 27.167 31.8349 25.3838 30.9399 23.8018C30.045 22.2196 28.7637 20.8903 27.2156 19.9376C26.215 19.3218 25.1238 18.8764 23.9871 18.6153M12.064 13.5849C15.3565 13.5849 18.0256 10.9159 18.0256 7.6234C18.0256 4.33094 15.3565 1.66187 12.064 1.66187C8.77156 1.66187 6.10248 4.33094 6.10248 7.6234C6.10248 10.9159 8.77156 13.5849 12.064 13.5849ZM1.33325 30.2772V28.9846C1.35224 27.167 1.83158 25.3838 2.72651 23.8018C3.62146 22.2196 4.90278 20.8902 6.4508 19.9376C7.99885 18.9849 9.76308 18.4402 11.5787 18.3542C11.7406 18.3466 11.9024 18.3426 12.064 18.3422C12.2257 18.3426 12.3875 18.3466 12.5493 18.3542C14.365 18.4402 16.1292 18.9849 17.6772 19.9376C19.2253 20.8902 20.5066 22.2196 21.4015 23.8018C22.2965 25.3838 22.7758 27.167 22.7948 28.9846V30.2772H1.33325Z" stroke="white" stroke-width="2" stroke-linecap="round" stroke-linejoin="round"/>
</svg>
